<svg width="130" height="40" viewBox="0 0 130 40" fill="none" xmlns="http://www.w3.org/2000/svg">
<path d="M13.2172 4.19184C17.7032 4.12856 22.1923 4.1602 26.6783 4.1424C27.5939 4.1424 27.7887 4.12065 28.7004 4.0544C29.0268 4.06057 29.3466 3.96244 29.6133 3.77429C29.8801 3.58613 30.0798 3.31776 30.1835 3.00823C30.4601 2.01495 30.3796 0.956145 29.9561 0.0160688C29.3495 -0.021028 28.7407 0.00615086 28.1397 0.0971517C26.8543 0.172302 25.562 0.248441 24.2727 0.306781C20.5885 0.469936 16.8974 0.32458 13.2113 0.262284L12.3105 0.247452C11.1655 0.230642 10.5851 0.51641 10.4466 1.4103C10.3632 2.37486 10.3526 3.34435 10.415 4.3105C11.3456 4.20712 12.2822 4.16747 13.2182 4.19184" fill="#EC482F"/>
<path d="M15.6687 21.9975C16.9008 15.9548 19.1878 13.022 20.3615 13.022C20.8895 13.022 21.2415 13.55 21.2988 14.6644C21.3581 18.1836 19.6584 22.5245 15.6687 21.9975ZM20.8885 8.15405C13.7624 8.15405 7.68143 11.0018 4.42541 17.0059C3.03927 16.5776 1.82657 15.7168 0.9647 14.5497C0.802331 14.7046 0.650076 14.8697 0.508875 15.0441C0.349253 15.2698 0.223655 15.5176 0.136108 15.7798C-0.0867023 16.5798 -0.0348281 17.4314 0.283435 18.1985C0.535535 18.9048 0.896511 19.5674 1.35329 20.1622C1.7473 20.67 2.19007 21.138 2.67528 21.5594C2.5764 21.9332 2.49136 22.3119 2.41226 22.7015C0.064916 34.1402 7.27999 39.6548 16.7841 39.6548C26.1685 39.6548 30.5686 33.6715 30.5102 29.9179C30.5102 29.3306 30.2749 29.1545 29.8646 29.1545C28.6325 29.1545 25.1125 31.0333 21.6518 31.0333C18.0151 31.0333 15.1991 29.8606 15.2584 25.5197C22.1798 26.5164 33.1552 25.8717 34.7936 18.6563C35.9079 13.6697 33.3263 8.15603 20.8905 8.15603" fill="#EC482F"/>
<path d="M54.2496 14.3719C57.7103 9.61964 61.347 8.4469 65.1014 8.4469C69.6764 8.4469 72.7268 11.3214 73.0194 15.5446C76.6571 9.79565 80.6459 8.4469 84.6929 8.4469C90.677 8.4469 94.0783 13.3752 92.085 19.8282L88.5056 31.3845C88.1536 32.3239 88.5056 32.9666 89.1513 32.9666C90.2656 32.9666 90.5583 31.7345 91.0299 31.7345C91.4393 31.7345 91.6746 32.3802 91.6746 33.02C91.734 36.2465 88.3306 40 81.7019 40C76.5395 40 73.2548 37.4192 73.1984 33.4303C73.2576 31.7574 73.6152 30.1085 74.2544 28.5614L77.4798 20.1209C78.2421 18.1848 77.2445 17.2464 76.0718 17.2464C74.9574 17.2464 73.2558 18.1264 72.1424 20.8832L68.9141 31.3845C68.5621 32.3239 68.9141 32.9666 69.5587 32.9666C70.6741 32.9666 71.0261 31.7345 71.4374 31.7345C71.8487 31.7345 72.0821 32.3802 72.0821 33.02C72.1414 36.2465 68.7381 40 62.1103 40C56.9479 40 53.6622 37.4192 53.6069 33.4303C53.6656 31.76 54.0219 30.1135 54.6589 28.5683L57.8853 20.1209C58.6476 18.1848 57.65 17.2464 56.4773 17.2464C55.3629 17.2464 53.7206 18.0671 52.6646 20.8249L48.7935 33.3829C47.7375 36.6628 50.7829 36.4888 50.3182 38.0135C50.0216 39.0102 48.9685 39.4799 46.4462 39.4799H33.073C30.961 39.4799 30.1403 38.7166 30.3747 37.6615C30.9037 36.0191 32.9563 36.7814 34.0707 33.2613L39.2914 16.307C40.1131 13.4918 36.8867 13.7845 37.4127 11.8494C37.8814 9.97067 43.3958 8.4469 48.0915 8.4469C51.9625 8.4469 54.4266 10.6174 54.2515 14.3719" fill="#EC482F"/>
<path d="M111.578 26.2216C110.719 26.2615 109.899 26.5899 109.249 27.1539C108.6 27.7179 108.16 28.4844 108.001 29.3295C107.649 30.8562 108.177 32.3226 109.583 32.3226C110.27 32.2549 110.921 31.9844 111.454 31.5456C111.986 31.1069 112.377 30.5196 112.575 29.8585L113.807 26.3976C113.068 26.2872 112.323 26.2284 111.576 26.2216M114.863 8.44568C124.893 8.44568 131.991 12.6106 129.002 22.9358L126.6 31.0312C126.364 31.9706 126.658 32.556 127.303 32.556C128.418 32.556 128.77 31.3249 129.181 31.3249C129.593 31.3249 129.885 32.028 129.885 32.6737C129.943 35.8379 125.897 39.6537 120.675 39.6537C116.686 39.6537 113.577 38.1873 112.462 35.2545C111.326 36.6282 109.902 37.7347 108.29 38.4951C106.678 39.2555 104.918 39.6511 103.136 39.6537C95.6272 39.6537 92.9289 33.9047 93.9255 29.5055C95.2159 23.8158 100.026 21.3517 105.481 21.3517C108.73 21.3382 111.96 21.8532 115.044 22.8765L116.51 19.0053C116.941 17.776 117.198 16.4927 117.273 15.1924C117.214 13.3136 116.101 12.3752 113.637 12.3752C114.809 15.6611 112.933 19.65 107.654 19.65C103.665 19.65 101.61 17.6565 101.553 15.3091C101.494 11.7889 105.249 8.44568 114.869 8.44568" fill="#EC482F"/>
</svg>
